<svg width="427" height="79" viewBox="0 0 427 79" fill="none" xmlns="http://www.w3.org/2000/svg">
<path d="M81 15.2654H94.6985L105.858 33.3747L117.018 15.2654H130.716V62.0406H117.819V35.1781L105.89 53.4873H105.623L93.762 35.3117V62.0406H81V15.2654Z" fill="#363E4C"/>
<path d="M152.499 44.5331L134.725 15.2654H149.492L159.114 32.3046L168.804 15.2654H183.304L165.53 44.3332V62.0406H152.499V44.5331Z" fill="#363E4C"/>
<path d="M187.312 15.2654H199.433L218.718 39.9898V15.2654H231.481V62.0406H220.098L200.076 36.3807V62.0406H187.312V15.2654Z" fill="#363E4C"/>
<path d="M239.766 15.2654H257.808C261.994 15.2654 265.726 15.833 269 16.9694C272.275 18.1058 275.037 19.6983 277.287 21.7469C279.535 23.7966 281.251 26.235 282.432 29.0644C283.611 31.8937 284.202 35.0014 284.202 38.3863V38.5199C284.202 41.9059 283.6 45.0356 282.397 47.9081C281.195 50.7816 279.458 53.2653 277.185 55.3581C274.913 57.453 272.117 59.0897 268.798 60.2692C265.48 61.4497 261.726 62.0394 257.538 62.0394H239.764V15.2654H239.766ZM258.028 50.5475C261.917 50.5475 265.046 49.5226 267.416 47.4741C269.786 45.4255 270.971 42.5077 270.971 38.7209V38.5873C270.971 34.8457 269.786 31.9379 267.416 29.8672C265.046 27.7954 261.916 26.7596 258.028 26.7596H252.729V50.5486H258.028V50.5475Z" fill="#363E4C"/>
<path d="M290.887 15.2654H303.85V50.6811H326.502V62.0406H290.887V15.2654Z" fill="#363E4C"/>
<path d="M348.219 14.9319H360.715L380.628 62.0417H366.728L363.32 53.6894H345.278L341.938 62.0417H328.307L348.219 14.9319ZM359.579 43.6651L354.366 30.3675L349.087 43.6651H359.579Z" fill="#363E4C"/>
<path d="M385.17 15.2654H409.118C412.053 15.2654 414.566 15.6221 416.656 16.3344C418.747 17.0478 420.481 18.0948 421.86 19.4752C422.793 20.4106 423.528 21.5028 424.061 22.7496C424.594 23.9976 424.862 25.4222 424.862 27.0257V27.1593C424.862 29.8772 424.185 32.0704 422.834 33.7413C421.482 35.4122 419.764 36.6933 417.682 37.5834C420.543 38.5188 422.81 39.8672 424.485 41.6264C426.16 43.3868 427 45.8473 427 49.0102V49.1438C427 53.1979 425.451 56.3608 422.356 58.6325C419.259 60.9042 414.905 62.0406 409.292 62.0406H385.17V15.2654ZM405.952 33.9092C407.956 33.9092 409.481 33.5746 410.529 32.9064C411.575 32.2383 412.1 31.2135 412.1 29.833V29.6994C412.1 28.4073 411.609 27.4167 410.63 26.7253C409.649 26.0351 408.179 25.6894 406.219 25.6894H397.799V33.9081H405.952V33.9092ZM407.823 51.6165C409.827 51.6165 411.364 51.2488 412.433 50.5144C413.502 49.7789 414.037 48.722 414.037 47.3404V47.2068C414.037 45.9147 413.524 44.891 412.5 44.1334C411.475 43.3769 409.87 42.997 407.689 42.997H397.799V51.6165H407.823Z" fill="#363E4C"/>
<path d="M51.0139 29.3865L36.0176 37.4984L38.2012 0L51.0139 29.3865Z" fill="url(#paint0_linear_2216_21)"/>
<path d="M19.9297 26.3152L27.3045 30.9487L38.1113 0.00622559L19.9297 26.3152Z" fill="url(#paint1_linear_2216_21)"/>
<path d="M27.0946 31.2546L22.282 44.2219L0 56.3082L19.7011 26.5179L27.0946 31.2546Z" fill="#363E4C"/>
<path d="M33.9886 52.3878L32.8203 66.7622L0.160156 57.1009L22.8393 44.7501L33.9886 52.3878Z" fill="#363E4C"/>
<path d="M71.6797 78.2083L33.1738 66.8352L34.3571 52.5793L71.6797 78.2083Z" fill="url(#paint2_linear_2216_21)"/>
<path d="M71.8324 77.8742L36.1719 37.9848L51.2814 29.8127L51.5098 30.3359L71.8324 77.8742Z" fill="url(#paint3_linear_2216_21)"/>
<defs>
<linearGradient id="paint0_linear_2216_21" x1="44.0211" y1="36.6808" x2="37.8497" y2="-2.8663" gradientUnits="userSpaceOnUse">
<stop offset="0.2924" stop-color="#9198A9"/>
<stop offset="0.441" stop-color="#8D94A5"/>
<stop offset="0.5989" stop-color="#80889A"/>
<stop offset="0.7612" stop-color="#6B7488"/>
<stop offset="0.9256" stop-color="#4D596E"/>
<stop offset="0.9409" stop-color="#4A566B"/>
</linearGradient>
<linearGradient id="paint1_linear_2216_21" x1="24.1704" y1="27.5439" x2="36.8586" y2="2.59277" gradientUnits="userSpaceOnUse">
<stop offset="0.0856" stop-color="#646B80"/>
<stop offset="0.2701" stop-color="#586277"/>
<stop offset="0.5497" stop-color="#4E596E"/>
<stop offset="0.8652" stop-color="#4A566B"/>
</linearGradient>
<linearGradient id="paint2_linear_2216_21" x1="33.1738" y1="65.3938" x2="71.6797" y2="65.3938" gradientUnits="userSpaceOnUse">
<stop offset="0.0856" stop-color="#646B80"/>
<stop offset="0.2701" stop-color="#586277"/>
<stop offset="0.5497" stop-color="#4E596E"/>
<stop offset="0.8652" stop-color="#4A566B"/>
</linearGradient>
<linearGradient id="paint3_linear_2216_21" x1="42.0984" y1="31.3611" x2="72.3866" y2="78.5667" gradientUnits="userSpaceOnUse">
<stop offset="0.000733274" stop-color="#4A566B"/>
<stop offset="0.0211" stop-color="#515B70"/>
<stop offset="0.077" stop-color="#5C6579"/>
<stop offset="0.1554" stop-color="#636A7F"/>
<stop offset="0.3736" stop-color="#656C80"/>
<stop offset="0.5875" stop-color="#5A6378"/>
<stop offset="1" stop-color="#4A566B"/>
</linearGradient>
</defs>
</svg>
